<svg xmlns="http://www.w3.org/2000/svg" width="512" height="512" viewBox="0 0 512 512">
    <path
        d="M202 306c-14 0-25-12-25-25s11-25 24-25 25 11 25 25-11 24-25 24m302-50a248 248 0 1 1-496 0 248 248 0 0 1 496 0m-132-41q-15 1-24 10-35-25-86-27l17-78 56 12c0 14 11 25 24 25s25-11 25-25a25 25 0 0 0-47-11l-61-14q-5 0-7 5l-19 86q-51 4-86 27-9-9-24-10c-35 0-46 47-14 63l-2 15c0 53 59 95 132 95s132-42 132-95l-1-16c31-16 19-62-15-62m-69 116c-18 18-76 18-94 0q-4-3-8 0-4 5 0 9c23 22 87 22 110 0q5-4 0-9-4-3-8 0m8-75c-14 0-25 11-25 25s11 24 24 24 25-11 25-24-11-25-25-25" />
</svg>