<svg xmlns="http://www.w3.org/2000/svg" width="375" height="456" viewBox="0 0 375 456">
    <path
        d="M330 0H45C20 0 0 20 0 45v366c0 25 20 45 45 45h285c25 0 45-20 45-45V45c0-25-20-45-45-45M79 71h58a17 17 0 1 1 0 35H79a17 17 0 1 1 0-35m0 70h58a17 17 0 1 1 0 35H79a17 17 0 1 1 0-35m241 227q-1 16-17 17H79q-15-1-17-17 2-16 17-18h224q16 2 17 18m-17-52H79a17 17 0 1 1 0-35h224a17 17 0 1 1 0 35m0-70H79a17 17 0 1 1 0-35h224a17 17 0 1 1 0 35m17-88q-1 16-17 18h-94q-17-2-18-18V88q1-16 18-17h94q16 1 17 17z" />
</svg>