<svg xmlns="http://www.w3.org/2000/svg" viewBox="0 0 252 300" width="252" height="300">
    <path
        d="M151.8 106.9a187 187 0 0 0 32.6-20.6q3.5 7.7 1.4 13.2-1.4 4-4.8 6.5a22 22 0 0 1-8.8 4c-6.3 1.5-13.7.7-20.4-3.1m1.6 46.9 12.2 7c-24.8 13.9-31.6 39.7-39.6 64.8-8-25.1-14.8-51-39.6-64.8l12.2-7a6 6 0 0 0 3.8-5.9c-1-23.5 5.3-34 13.9-40.5q4.6-3.5 9.7-3.5c5.1 0 6.7 1.2 9.7 3.5 8.6 6.5 15 17 13.9 40.5a6 6 0 0 0 3.8 5.9M126 0a101 101 0 0 1 72.7 30.8c7.8.3 19.4-8.5 24.7-16.7-9.2 30.2-51.3 66-80.4 79.6q-8-6-17-6c-9 0-11.8 2-17 6C79.9 80 37.8 44.3 28.6 14.1c5.3 8.2 16.9 17 24.7 16.7A101 101 0 0 1 126 0m-25.8 106.9a189 189 0 0 1-32.6-20.6q-3.5 7.7-1.4 13.2 1.4 4 4.8 6.5a22 22 0 0 0 8.8 4c6.3 1.5 13.7.7 20.4-3.1" />
    <path
        d="M197.2 75a179 179 0 0 0 16.6-20l2.3 4.3a101 101 0 0 1 11.4 46.5v26.5l.1 13.8c.5 33.7 7.9 67.9 24.4 99.1l-34.6-27.9-24.5 39.8-25.8-24.2-41.1 66.7-41.1-66.7L59 257l-24.5-39.8-34.6 28A219 219 0 0 0 24.4 146l.1-13.8v-26.5A101 101 0 0 1 36 59.3l2.3-4.4c4.5 6.4 10.2 13.6 16.6 20.1l-2 4.2a33 33 0 0 0-2.1 25.8 31 31 0 0 0 10.1 14q6.9 5.3 15.4 7.1 5.4 1.3 11 1-1.4 7.3-1.3 15L53.2 161l25.2 14a42 42 0 0 1 5.7 3.9c20.8 18.6 33.3 73.8 41.9 100.8 8.6-27 21-82.2 41.9-100.8a42 42 0 0 1 5.7-3.9l25.2-14.1-32.7-18.9q0-7.7-1.2-15 5.4.3 11-1a38 38 0 0 0 15.3-7.2 31 31 0 0 0 10.1-14c3-8.5 1.8-17.6-2.1-25.7z" />
</svg>