<svg xmlns="http://www.w3.org/2000/svg" width="800" height="800" viewBox="0 0 512 512">
    <path
        d="m412 119-9-6-25-20c-18-21-24-42-27-57q-2-19-1-20h-82v331l-1 2v1a70 70 0 0 1-35 55 69 69 0 0 1-34 9c-38 0-69-31-69-70s31-70 69-70l21 4 1-84a153 153 0 0 0-118 34 162 162 0 0 0-36 44 151 151 0 0 0-9 124c2 6 10 25 22 41a168 168 0 0 0 36 34v-1 1c40 27 84 25 84 25 8 0 34 0 63-14 32-15 51-38 51-38a158 158 0 0 0 27-46c8-19 10-43 10-52V176l14 10a191 191 0 0 0 100 27v-82c-10 1-31-2-52-12" />
</svg>