<svg xmlns="http://www.w3.org/2000/svg" width="800" height="800" viewBox="0 0 512 512">
    <path
        d="M437 75a254 254 0 0 0-362 0 254 254 0 0 0 0 362 254 254 0 0 0 362 0 254 254 0 0 0 0-362m13 104q-13 0-26-6-9-4-22-6c-23-5-46 7-59 31-4 7-23 43-7 64q10 12 20 17l28 15 6 2q10 3 15 8 2 1 1 14-1 9-5 19c-6 17-14 39 5 62l12 10A222 222 0 0 1 44 188l11 14q19 20 41 35l3 3 1 10c-1 8-2 20 5 32q7 12 15 20l11 14v13q-2 11 1 23 5 16 14 27 6 6 8 13l2 11 3 15c4 15 16 30 34 30h2q28-5 32-42c0-4 1-14 3-16l3-1q8-1 18-9c11-11 8-25 6-33l-1-7c0-4 8-11 11-14l31-26c12-10 16-27 11-43q-6-18-24-30-23-15-44-7l-11 7-3 2-1-2-3-8-6-12c-12-22-32-24-47-26l-7-1q-20-4-35-15l10-2h6q9 2 22 0 12-5 19-11l3-3q5-2 12-2c11-1 35-3 39-37 2-17-5-31-9-43l-12-30a223 223 0 0 1 117 11l-3 2-20 22q-4 3-7 14c-2 12 5 21 8 25 5 6 12 15 25 18l8 1q14-1 23-6l9-4 10 2q7 3 18 4 14 0 23-9 23 28 36 61h-4z" />
</svg>