<svg xmlns="http://www.w3.org/2000/svg" id="Layer_2" width="229.5" height="181.3" data-name="Layer 2" viewBox="0 0 229.5 181.3"><path d="M221 133a8 8 0 0 0-7.2 4.1q-13.5.2-26-4.6l.2-.5q1-2.2 1.7-4.3 1.2-4 .5-8.3a51 51 0 0 0-2-7.8l.4-.1 1-.4.3-.1.3-.1v-.1q.9-.4 1.3-1l.2-.3.2-.3q.3-1.5.2-3v-1.8l-.1-.4v-1l-.3-1.3q-.2-1.8-.8-3.3 0-.4-.4-1l-.4-.8-.7-1v-1.3l-.2-3-.3-.8v-.2l-.4-.7v-.2l-.4-.5-.9-1-1.5-.8a5 5 0 0 0-1.1-3.8l-.2-.2a43 43 0 0 0-9.9-23.8s-1.3-1.3-1.3-1.3q-2.2-10.5-7-20.2c-3-6-7-11.8-12-16.5a54 54 0 0 0-26.1-14l-1.7-.3c-.6 0-1 .7-.5 1.1q4 3.8 6.8 8.8c1.6 3 2.9 6.4 3.1 9.8q0 .8-.2 1.4a106 106 0 0 0-75-28l-3.3.4c-.8 0-1 1-.2 1.3a98 98 0 0 1 26.5 14 89 89 0 0 0-29.2-4.5Q43.1 11 32 13a66 66 0 0 0-17.3 5.2c-.6.3-.2 1.1.4 1.2a73 73 0 0 1 31 9.8 53 53 0 0 1 8 5l1.1 1a168 168 0 0 0-32.8-.9q-9.6.8-19 2.8l-3 .6c-.5 0-.6 1-.1 1.2q6.4 2.8 12 7t9.6 9.8q4.8 6.4 8 13.7 3.9 8.8 6.6 18.3 2.7 9 4.8 18.1-4.6-2.1-9-4.8l-11-7A62 62 0 0 1 9.7 84c-.4-.6-1.2 0-1 .6a114 114 0 0 0 32 54.6q5.8 5.4 12.3 10.1l2.6 1.9.6.9q2.5 4 6.3 7A118 118 0 0 0 79 169.5q4.6 2 9.6 3.6a169 169 0 0 0 25.2 6.2q13.8 2.5 28 1.6c8.3-.6 17-2.5 24.1-7a32 32 0 0 0 10.5-10.6l3.7-.6q6.8-1.1 13.2-3c7.8-2.5 16-4.8 23-9l2.2-1.4q1.2.3 2.5.4a8.4 8.4 0 1 0 0-16.8Z" style="fill:#1b1b1b"/></svg>