<svg xmlns="http://www.w3.org/2000/svg" width="555" height="496" viewBox="0 0 555 496">
    <path 
        d="m404 28-7 7v-7h-34c-16 23-48 40-86 40s-70-17-86-40h-34v7l-7-7L28 150l67 68 62-63v313h240V155l62 63 67-68z" />
    <path 
        d="M397 496H157c-15 0-27-13-27-28V222l-16 15a28 28 0 0 1-39 0L8 170a28 28 0 0 1 0-39L131 8q9-9 23-8h37q16 1 24 13c10 16 35 27 62 27s52-11 62-27q9-12 24-13h41q11 0 19 8l123 123c11 11 11 28 0 39l-67 67a28 28 0 0 1-39 0l-16-15v246c0 15-12 28-27 28m-212-56h184V155a28 28 0 0 1 47-19l43 43 28-29-88-88a27 27 0 0 1-21-7h-2c-23 25-59 40-99 40s-76-15-99-40h-2a28 28 0 0 1-21 7l-88 88 28 29 43-43a28 28 0 0 1 47 19z" />
</svg>