<svg xmlns="http://www.w3.org/2000/svg" width="98" height="88.7" viewBox="0 0 98 88.7">
    <path
        d="M21.6 73v12.2c0 1.9-1.6 3.5-3.5 3.5H8.6a3.5 3.5 0 0 1-3.5-3.5V73c0-2 1.6-3.5 3.5-3.5h9.5c2 0 3.5 1.6 3.5 3.5m20-7.6H32c-2 0-3.5 1.6-3.5 3.5v16.3c0 1.9 1.6 3.5 3.5 3.5h9.5c1.9 0 3.5-1.6 3.5-3.5V68.9c0-2-1.6-3.5-3.5-3.5M65 56.2h-9.5a3.5 3.5 0 0 0-3.5 3.5v25.5c0 1.9 1.6 3.5 3.5 3.5H65c1.9 0 3.5-1.6 3.5-3.5V59.7c0-2-1.6-3.5-3.5-3.5m23.5-17.5H79c-2 0-3.6 1.6-3.5 3.6v42.8c0 2 1.5 3.6 3.5 3.6h9.4c2 0 3.6-1.6 3.6-3.6V42.3c0-2-1.6-3.5-3.5-3.6m9.3-19.4L94.6 4.1a5 5 0 0 0-6.1-4L73.3 3.4a5.2 5.2 0 0 0 2.2 10.2l2.8-.6A86 86 0 0 1 7.4 52H5.6a5.2 5.2 0 0 0-.8 10.3h2.8q14.7 0 28.6-4.8a96 96 0 0 0 50.8-39l.7 3a5.2 5.2 0 1 0 10.2-2.1" />
</svg>