<svg xmlns="http://www.w3.org/2000/svg" id="Layer_1" width="822.2" height="204.9" data-name="Layer 1" viewBox="0 0 822.2 204.9"><defs><style>.cls-1,.cls-2{fill:#fdc238;stroke-width:0}.cls-2{fill:#191919}</style></defs><path d="m147.3 195.6.5-64.4-79.2-.7L68 195l-64-.5.3-4.7.4-9q2-40.4 2.2-76.3v-5.1q.2-38-1.3-80.8l-.1-4.2h4.6l59.3.5-.5 64.5 79.2.6.5-64.4h14.5l45.2.4h4.2l-.2 4.2c-1.3 24.3-2 51-2.3 79.2v6.6q-.4 40.2.6 76.5v.7l.3 8.7.2 4.2z" class="cls-2"/><path d="M9.7 18.5h10.5l45.2.4-.4 55v9.5h10.4l76.8.6v-9.4l.5-55H163l44.9.4h.4a2025 2025 0 0 0-2.4 86q-.3 40.6.7 76.6l.3 9.5-55.7-.4v-9.5l.5-55-87.2-.7-.4 55-.1 9.5-55.7-.5.4-9.4q2-40.6 2.2-76.6v-5.1q.2-37.8-1.3-81m-8.2-8 .2 8.3c1 28.4 1.4 55.6 1.3 80.7v5.1a2026 2026 0 0 1-2.6 85.2v.5l-.4 8.3h8.4l55.7.5h8v-17.4l.5-47 71.2.5-.4 47v9.5l-.1 8h8l55.7.5h8.3l-.3-8.3-.2-9v-.4q-1.1-36.2-.7-76.3v-6.7q.4-42.4 2.3-79l.4-8.3H208l-44.8-.4-10.6-.1h-8v8l-.4 55V76l-68.8-.5H73V74l.5-55v-8h-8l-45.2-.4-10-.1h-.5z" class="cls-2"/><path d="m214.9 196.2.2-4.2a2088 2088 0 0 0 1.3-171.7l-.1-4.2 192.3 1.5-.4 50.9-128.2-1-.1 14.8a2111 2111 0 0 0 107.5-.4l4-.1-.3 49-4.1-.1a2236 2236 0 0 0-99-2.2h-8.5l-.1 16.8h15.8c49.6 0 86.8-.5 110.6-1.6l5-.2-1 5q-1.6 9.2-2 19.4-.4 9.8-.6 25.8v4z" class="cls-2"/><path d="m220.4 20.1 184.2 1.5-.4 42.9-128.2-1-.2 22.7a1703 1703 0 0 0 49.6.6q30.2 0 62-.9l-.2 40.8a2193 2193 0 0 0-111.7-2l-.1 24.6h19.9q74.7 0 110.7-1.6-1.8 9.7-2.2 20t-.6 26l-184.1-1.5q2.2-46 2.6-86t-1.3-86m-8.3-8.1.3 8.3c1 30.5 1.4 59.4 1.2 85.7q-.3 39.8-2.5 85.7l-.4 8.3 8.3.1 184.2 1.5h8v-8q.2-15.9.6-25.6.4-10 2-19l1.8-9.8-10 .4c-23.7 1-60.8 1.6-110.3 1.6h-11.9v-8.7h25.7q37.6.5 77.7 2l8.3.4v-8.2l.4-40.8v-8.3l-8.2.2a2259 2259 0 0 1-103.4.5v-6.8l120.3.9h8v-8l.4-42.8v-8l-8-.1-184.1-1.4z" class="cls-2"/><path d="M495.7 200.7q-25-.2-44.5-11.5a79 79 0 0 1-30.4-32.4 102 102 0 0 1-10.5-53.3q1.7-40.6 27-64.9 26.3-25 80-25.1h1.9l4.8.1q28.4 1 50.6 10.6a103 103 0 0 1 41 32.3l3 3.9-4.4 2.1L572.5 84l-8.6 4.7-2.1-2.2a56 56 0 0 0-20-13 70 70 0 0 0-24.7-4.6h-.7q-20.5 0-30.4 10.4a37 37 0 0 0-10.2 26.7q-.2 17.3 10.5 27.8 10.8 10.5 33.7 10.7h4.5q7.8-.6 15.1-2.7 3.6-1.1 6.8-2.8h-2.2l-.2-4.4-1.8-3 1-.6h.2l3-1.5-38.9-.3 1-32.9 3 .1.2-4h.2l105.2.8-.8 106-49.3-.3-3.4-30.8a59 59 0 0 1-21.3 21.5 89 89 0 0 1-45.6 11.1z" class="cls-2"/><path d="M517.3 17.5h1.8l4.8.1q27.6.9 49.1 10.3a98 98 0 0 1 39.5 31l-42 21.6-5.9 3.2a60 60 0 0 0-21.4-14 74 74 0 0 0-26-4.8h-.7q-22.3 0-33.3 11.7a41 41 0 0 0-11.4 29.4 41 41 0 0 0 11.7 30.7q12 11.7 36.5 11.9h.5q2.3 0 4.4-.2 8.1-.4 15.9-2.7a37 37 0 0 0 17-10.6h-13.6q8-3.2 13.7-9.5l-35.7-.2-10.5-.1.9-28.8-.7-.1h10.5l90.7.8-.7 88.6v9.5l-41.8-.4-4.6-42q-7.3 22.5-25.7 33.3-18 10.5-43.6 10.5h-1q-24-.1-42.5-11a75 75 0 0 1-28.9-30.8 98 98 0 0 1-10-51.3q1.5-39 25.7-62 25.2-24.1 77.3-24.1m0-8c-36.7 0-64.6 8.8-82.8 26.2-17.5 16.8-27 39.6-28.2 67.6l-.2 5a106 106 0 0 0 11.1 50.3 83 83 0 0 0 32 34 92 92 0 0 0 46.4 12.1h1.1a93 93 0 0 0 47.7-11.6 62 62 0 0 0 16.4-14l1.9 16.7.7 7.1h7.2l41.7.4h8v-8l.1-9.4.7-88.7v-8h-8l-41.1-.4 2.3-1.3L616 66.1l8.7-4.3-6-7.7q-2.7-3.8-5.9-7.1a107 107 0 0 0-36.6-26.5 142 142 0 0 0-57-11zm3.2 131h-.4q-21.4-.1-31-9.5a33 33 0 0 1-9.3-25l.2-4q1.1-11.6 9-20 8.7-9 27.5-9.1h.6a66 66 0 0 1 23.2 4.3 52 52 0 0 1 18 11.5l-35.8-.2-10.5-.1h-.4l-.3 8-6.7-.2-.9 28.8-.3 8.2h8.2l10.5.2 21.3.1.6 1v1.3q-2.5 1.3-5.5 2.2a62 62 0 0 1-14 2.5z" class="cls-2"/><path d="m621.4 199.4.2-4.2a2088 2088 0 0 0 1.3-171.7l-.1-4.2L815 20.8l-.4 50.9-128.2-1-.1 14.8a2111 2111 0 0 0 107.5-.4l4.1-.1-.4 49-4.1-.1a2232 2232 0 0 0-98.9-2.2H686l-.1 16.8h15.8c49.6 0 86.8-.5 110.6-1.6l5-.2-1 5q-1.6 9.3-2 19.4-.4 9.8-.6 25.8v4z" class="cls-2"/><path d="m627 23.3 184 1.5-.3 42.9-128.2-1-.2 22.7a1703 1703 0 0 0 49.6.6q30.2 0 62-.9l-.2 40.8a2193 2193 0 0 0-111.7-2l-.2 24.5 20 .1q74.7 0 110.7-1.6-1.8 9.7-2.2 20t-.6 26l-184.1-1.5q2.2-46 2.5-86 .4-40-1.2-86m-8.3-8.1.3 8.3c1 30.5 1.4 59.4 1.2 85.7q-.3 39.8-2.5 85.7l-.4 8.3 8.3.1 184.2 1.4 8 .1v-8q.1-15.8.6-25.7t2-18.9l1.8-9.8-10 .4c-23.7 1-60.8 1.6-110.3 1.6h-11.9v-8.7h25.7q37.6.4 77.7 2l8.3.4V130l.4-40.7V81l-8.2.2a2259 2259 0 0 1-103.4.5v-6.9l120.3 1h8v-8l.4-42.9v-8h-8L627 15.3z" class="cls-2"/><path d="m206.7 186.6-59.3-.5.5-64.4-79.3-.7-.5 64.5-59.7-.4-4.1-.1.2-4.1q2-43.6 2.5-80.9v-5A2096 2096 0 0 0 5.8 9.1L5.7 5l63.8.5L69 70l79.2.6.5-64.4 64 .5-.3 4.1-.4 9.3v.2q-1.5 35.4-2 76.4v2.8c-.1 29.2.2 57.2 1 83l.2 4.2z" class="cls-1"/><path d="m9.8 9 55.7.4V19L65 74h10.5l76.7.7.5-55V10l55.7.4-.4 9.5q-1.5 36-1.9 76.6v2.8q-.3 44.4 1 83.2h-.4l-44.8-.4h-10.5l.4-55v-9.5l-87.1-.7-.1 9.5-.4 55-44.9-.4H8.5q2-43.2 2.5-81v-5A2096 2096 0 0 0 9.8 9M1.5 1l.3 8.2.3 9.5A2088 2088 0 0 1 3 99.3v.7q-.4 37.2-2.5 80.7L0 189h8.7l10.5.1 44.8.4h8v-8l.5-55v-1.4l71.2.5v1.7l-.4 54.8v8h8l10.4.2 44.9.3h.3l8.4.1-.3-8.4q-1.3-38.9-1-82.9v-2.8c.2-27 .8-52.7 1.9-76.2V20l.4-9.1.4-8.4h-8.3L152.8 2h-8v8l-.1 9.5-.4 47-68.7-.6H73l.3-47 .1-9.5v-8h-8L10 1z" class="cls-2"/><path d="m215 186.7.1-4.2a2098 2098 0 0 0 2.6-85.8q.3-39.5-1.2-85.9l-.2-4.2 192.4 1.5-.4 51L280 58v14.8l6.5.1 39.2.3q30 0 61.7-.9h4.2l-.4 49-4.1-.2a2210 2210 0 0 0-99.3-2.1h-8.2l-.1 16.7h15.4q75.1 0 111-1.6l5-.2-1 5a142 142 0 0 0-2 19.4q-.5 10.1-.6 25.8v4z" class="cls-1"/><path d="M220.5 10.7 404.6 12v9.5l-.3 33.4-128.2-1-.2 22.7a1513 1513 0 0 0 49.8.6q30 0 61.8-.9v9.9l-.3 30.9a2192 2192 0 0 0-111.6-2l-.2 24.6H295q75.1 0 111.1-1.6a141 141 0 0 0-2.1 20q-.5 10.3-.6 26L230 182.8h-10.8a2086 2086 0 0 0 1.3-172.2m-8.3-8 .3 8.3q1.5 46.3 1.2 85.8-.3 39.6-2.5 85.6l-.4 8.4h8.3l10.9.1 173.2 1.4h8l.1-8q.1-15.7.5-25.6a149 149 0 0 1 2.1-19l1.8-9.8-10 .4a2753 2753 0 0 1-110.7 1.6h-11.5v-8.7h25.7q37.5.5 77.7 2l8.2.4.1-8.2.3-31v-9.8l.1-8.3-8.3.2a2249 2249 0 0 1-100.8.6H284v-7l120.2 1h8l.1-8 .3-33.4v-9.4l.1-8-8-.1-184.2-1.4z" class="cls-2"/><path d="M495.7 191.2a88 88 0 0 1-52-16.6q-14.1-10.6-22.8-27.3a100 100 0 0 1-10.7-48.4q.5-44.1 27.2-69.8 26.3-25 80-25h1.9q31.3.1 55.4 10.6a103 103 0 0 1 41 32.4l3 3.8-4.4 2.2-5.6 2.8-36.2 18.6-8.5 4.7-2.1-2.1a56 56 0 0 0-20-13.2 70 70 0 0 0-24.7-4.5h-.7q-20.5 0-30.4 10.4A38 38 0 0 0 476 96.5l.1 4.5a35 35 0 0 0 16 27.7q10.5 6.2 28.1 6.4h.6a67 67 0 0 0 21.8-3.7l.7-.4h.3l3-1.5-38.9-.3.4-46.3 109.2.8-.8 106.1-36.4-.3h-13l-3.3-30.9a59 59 0 0 1-21.3 21.5 89 89 0 0 1-45.6 11.1z" class="cls-1"/><path d="M517.4 8h1.8q30.6.3 53.8 10.4a98 98 0 0 1 39.5 31.1l-5.6 2.8q-12 6-36.3 18.7l-6 3.2a60 60 0 0 0-21.4-14 74 74 0 0 0-26-4.8h-.7q-22.3 0-33.3 11.7a42 42 0 0 0-11.2 34.2 39 39 0 0 0 18 30.8 59 59 0 0 0 30.1 7h.6a71 71 0 0 0 23.5-4v-.1q8-3 13.7-9.4l-35.7-.2-10.5-.1.2-29V87l101.3.8-.1 9.5-.7 88.6-32.3-.3h-9.4l-1.8-16.4-2.8-25.6q-7.3 22.4-25.7 33.2a85 85 0 0 1-43.6 10.5h-1a84 84 0 0 1-49.7-15.8 75 75 0 0 1-21.7-26 95 95 0 0 1-10.1-41.7V99q.3-42.4 25.8-66.9 25.2-24 77.4-24m0-8q-55.4 0-83 26.3c-18.5 17.7-28 42.2-28.3 72.6v5q.8 25.4 11.1 45.2a84 84 0 0 0 32 34 92 92 0 0 0 46.4 12.1h1a93 93 0 0 0 47.8-11.6 62 62 0 0 0 16.4-14v.4l1.8 16.3.8 7 7.1.1 9.4.1 32.3.3h8v-8l.8-88.6v-9.5l.1-8h-8l-41.2-.4 2.4-1.3 39-20 2.7-1.3 8.7-4.4-6-7.7A106 106 0 0 0 576.2 11a145 145 0 0 0-57-11zm-13.9 129.2q-5.4-1.5-9.5-4a26 26 0 0 1-4.9-3.7 31 31 0 0 1-9.2-20.8l-.1-4.1q0-14.4 9.2-24 8.7-9.2 27.4-9.2h.7q12.3 0 23.2 4.3a52 52 0 0 1 18 11.6l-46.3-.4h-8v8l-.2 9.4v.3l-.2 28.6z" class="cls-2"/><path d="m621.5 189.9.2-4.2A2109 2109 0 0 0 623 14l-.1-4.2 192.3 1.5-.4 51-128.2-1-.2 14.8h6.6l39.2.4q30 0 61.7-.9h4.2l-.4 49-4.1-.2a2210 2210 0 0 0-99.3-2.1H686l-.2 16.7h15.5q75.2 0 111-1.6l5-.2-1 5a137 137 0 0 0-2 19.4q-.5 10.1-.6 25.8v4z" class="cls-1"/><path d="m627 13.9 184 1.4v9.5l-.3 33.4-128.2-1-.2 22.7a1513 1513 0 0 0 49.8.6q30 0 61.8-.9v9.9l-.3 30.9a2192 2192 0 0 0-111.6-2V143h19.5q75 0 111.1-1.6a141 141 0 0 0-2.1 20 727 727 0 0 0-.6 26L636.5 186h-10.8A2086 2086 0 0 0 627 13.7m-8.3-8 .3 8.3q1.5 46.4 1.2 85.7-.3 39.8-2.5 85.7l-.4 8.4h8.3l10.9.1 173.3 1.4h8v-8q0-15.6.6-25.6a149 149 0 0 1 2-19l1.8-9.8-10 .4c-23.7 1-61 1.6-110.8 1.6H690v-8.7h25.7q37.6.4 77.7 2l8.3.4v-8.3l.3-30.9v-9.8l.1-8.3-8.3.2a2250 2250 0 0 1-100.8.6h-2.5v-7l120.3 1h8v-8l.3-33.4v-9.5l.1-8h-8L627.1 5.9z" class="cls-2"/></svg>